<svg xmlns="http://www.w3.org/2000/svg" xmlns:xlink="http://www.w3.org/1999/xlink" viewBox="0 0 93 53.61"><defs><style>.cls-1{fill:none;}.cls-2{clip-path:url(#clip-path);}.cls-3{fill:#4b4b4b;}</style><clipPath id="clip-path"><rect class="cls-1" x="-604.75" y="-149.04" width="640" height="480" transform="translate(-193.79 375.71) rotate(90)"/></clipPath></defs><title>menuIcons</title><g id="レイヤー_1" data-name="レイヤー 1"><g class="cls-2"><image width="800" height="600" transform="translate(-689.71 -233.93) scale(1.07)" xlink:href="data/background/schoolbuildingback_night.jpg"/></g></g><g id="img"><path class="cls-3" d="M62.64,21.27,47.46,8.55a1.48,1.48,0,0,0-1.92,0L30.36,21.27a1.5,1.5,0,0,0,1,2.64h0a1.48,1.48,0,0,1,1.49,1.49V43.5A1.49,1.49,0,0,0,34.31,45H58.69a1.49,1.49,0,0,0,1.5-1.49V25.4a1.48,1.48,0,0,1,1.49-1.49h0A1.5,1.5,0,0,0,62.64,21.27ZM45.12,37a.78.78,0,0,1-.78.78H40.51a.78.78,0,0,1-.78-.78V33.21a.78.78,0,0,1,.78-.78h3.83a.78.78,0,0,1,.78.78Zm0-7.56a.78.78,0,0,1-.78.78H40.51a.78.78,0,0,1-.78-.78V25.65a.78.78,0,0,1,.78-.78h3.83a.78.78,0,0,1,.78.78ZM53.27,37a.78.78,0,0,1-.78.78H48.66a.78.78,0,0,1-.78-.78V33.21a.78.78,0,0,1,.78-.78h3.83a.78.78,0,0,1,.78.78Zm0-7.56a.78.78,0,0,1-.78.78H48.66a.78.78,0,0,1-.78-.78V25.65a.78.78,0,0,1,.78-.78h3.83a.78.78,0,0,1,.78.78Z"/></g></svg>