<svg xmlns="http://www.w3.org/2000/svg" xmlns:xlink="http://www.w3.org/1999/xlink" viewBox="0 0 93 53.61"><defs><style>.cls-1{fill:none;}.cls-2{clip-path:url(#clip-path);}.cls-3{fill:#4b4b4b;}</style><clipPath id="clip-path"><rect class="cls-1" x="-704.37" y="-149.04" width="640" height="480" transform="translate(-293.41 475.34) rotate(90)"/></clipPath></defs><title>menuIcons</title><g id="レイヤー_1" data-name="レイヤー 1"><g class="cls-2"><image width="800" height="600" transform="translate(-789.33 -233.93) scale(1.07)" xlink:href="data/background/schoolbuildingback_night.jpg"/></g></g><g id="img"><path class="cls-3" d="M31.08,36.47a1.72,1.72,0,0,1,.66-.57,1.94,1.94,0,0,1,.85-.21h0l3.32.73,4.26.93L47.61,39a5.06,5.06,0,0,0,1.09.12,5.17,5.17,0,0,0,3.4-1.28l.25-.22,8.78-7.78,2.92-2.59a1.06,1.06,0,0,0,.09-1.5,1,1,0,0,0-1.49-.09L59.52,28.4l-8.83,7.81a3,3,0,0,1-2,.75,3.55,3.55,0,0,1-.64-.06l-5-1.12-6.1-1.35-4.27-.94h0v0h0L32,33.33a2,2,0,0,1-.48-.24,1.82,1.82,0,0,1-.56-.67,1.78,1.78,0,0,1-.21-.85,1.82,1.82,0,0,1,.09-.56,1.88,1.88,0,0,1,.27-.55,1.93,1.93,0,0,1,.67-.57,1.9,1.9,0,0,1,.85-.2h0l3.32.72,4.26.93L47.65,33a5,5,0,0,0,1.09.12,4.17,4.17,0,0,0,.61,0,5.07,5.07,0,0,0,2.78-1.24l.26-.22,8.78-7.77,2.92-2.59a1.06,1.06,0,0,0,.23-1.3c0-.07-.09-.14-.14-.21a1.06,1.06,0,0,0-1.5-.09l-3.12,2.77L50.73,30.2a3,3,0,0,1-2,.76,2.73,2.73,0,0,1-.64-.07l-5.05-1.12L37,28.43l-4.27-.95h0L32,27.33l-.09,0a1.36,1.36,0,0,1-.21-.1.78.78,0,0,1-.18-.11,1.84,1.84,0,0,1-.57-.67,1.91,1.91,0,0,1-.21-.85,1.87,1.87,0,0,1,.09-.56,2,2,0,0,1,.28-.55,1.94,1.94,0,0,1,1.52-.77h.15l2.33.51,2.07.44,10.22,2.21A4,4,0,0,0,51,25.92l6.28-5.53L61,17.08l2.65-2.34a2,2,0,0,0,.63-2,2.06,2.06,0,0,0-1.55-1.49L62,11,56.14,9.78,48.76,8.19a4,4,0,0,0-3.55.93l-9.86,8.65-3,2.61-2.58,2.26a2.47,2.47,0,0,0-.28.38,1,1,0,0,0-.13.16,4.29,4.29,0,0,0-.59,1.17,4.22,4.22,0,0,0-.18,1.21,4,4,0,0,0,.76,2.37,5,5,0,0,0,.53.59h0l-.14.12c-.1.12-.19.24-.28.37l-.12.17a4.09,4.09,0,0,0-.78,2.38,4.07,4.07,0,0,0,.77,2.37,4.14,4.14,0,0,0,.53.58v0l-.14.12a2.4,2.4,0,0,0-.28.37l-.13.17a4.15,4.15,0,0,0-.59,1.17,4.24,4.24,0,0,0-.19,1.21,4,4,0,0,0,.77,2.36,3.84,3.84,0,0,0,.9.9,3.9,3.9,0,0,0,1.17.59h0l4.5,1,4.25.93L47.58,45a5,5,0,0,0,1.08.12,5.17,5.17,0,0,0,3.4-1.28l.26-.23,8.77-7.77L64,33.23a1.06,1.06,0,0,0-1.41-1.59L59.49,34.4l-8.83,7.82a3,3,0,0,1-2,.75A2.7,2.7,0,0,1,48,42.9L43,41.79l-6.09-1.35-4.28-.94L32,39.36a2,2,0,0,1-.51-.26,1.93,1.93,0,0,1-.57-.67,1.81,1.81,0,0,1-.21-.85A1.88,1.88,0,0,1,30.8,37,2,2,0,0,1,31.08,36.47Z"/></g></svg>