<svg xmlns="http://www.w3.org/2000/svg" xmlns:xlink="http://www.w3.org/1999/xlink" viewBox="0 0 93 53.61"><defs><style>.cls-1{fill:none;}.cls-2{clip-path:url(#clip-path);}.cls-3{fill:#4b4b4b;}</style><clipPath id="clip-path"><rect class="cls-1" x="270.59" y="-224.73" width="480" height="640"/></clipPath></defs><title>menuIcons</title><g id="レイヤー_1" data-name="レイヤー 1"><g class="cls-2"><image width="800" height="600" transform="translate(58.23 -224.73) scale(1.07)" xlink:href="data/background/classroom_evening.jpg"/></g></g><g id="img"><path class="cls-3" d="M32.36,29.09l.38.06.47.07.69.1,4.85.73h12L52,24.12a20.23,20.23,0,0,0,2.68,8c2.29,3.64,2.08,6.74,1.58,8.23S52.57,45,52.57,45s10.15-.51,12.61-3a4.17,4.17,0,0,0,.93-4.84,52.47,52.47,0,0,1-1.75-8.25c-.54-3.48,0-2.79-1.5-7.81s-2.79-7.13-5-8.86c-3-2.39-7.72-3.42-9.58-3.77s-7.74-.5-11.08,1.51a16.92,16.92,0,0,0-6.51,6.52c-1.08,2.26-1.53,6.14-1.9,8.82s-2.31,7.1-2.31,9c0,5,2.31,7.34,2.31,7.34a16.34,16.34,0,0,1,.77-9.29A10.4,10.4,0,0,1,32.36,29.09Z"/><path class="cls-3" d="M36.43,32.88a1.63,1.63,0,0,0-.31,0,1.84,1.84,0,0,1-1.26-.48c-.24-.28.11.36.54.9a1.39,1.39,0,0,0-.39,1v1.51a1.42,1.42,0,1,0,2.84,0V34.3A1.42,1.42,0,0,0,36.43,32.88Z"/><path class="cls-3" d="M45.47,32.88a1.55,1.55,0,0,0-.31,0,1.84,1.84,0,0,1-1.26-.48c-.25-.28.11.36.53.9a1.39,1.39,0,0,0-.39,1v1.51a1.43,1.43,0,0,0,2.85,0V34.3A1.43,1.43,0,0,0,45.47,32.88Z"/><path class="cls-3" d="M41.28,41.24a11.21,11.21,0,0,1-3.72-.64l.16-.42a10.08,10.08,0,0,0,6.73,0l.18.42A8.6,8.6,0,0,1,41.28,41.24Z"/></g></svg>