<svg xmlns="http://www.w3.org/2000/svg" xmlns:xlink="http://www.w3.org/1999/xlink" viewBox="0 0 93 53.61"><defs><style>.cls-1{fill:none;}.cls-2{clip-path:url(#clip-path);}.cls-3{fill:#4b4b4b;}</style><clipPath id="clip-path"><rect class="cls-1" x="171.51" y="-224.73" width="480" height="640"/></clipPath></defs><title>menuIcons</title><g id="レイヤー_1" data-name="レイヤー 1"><g class="cls-2"><image width="800" height="600" transform="translate(-40.85 -224.73) scale(1.07)" xlink:href="data/background/classroom_evening.jpg"/></g></g><g id="img"><path class="cls-3" d="M64,18.88l-3.46.81a15.53,15.53,0,0,0-3-4.13l1.88-3a1.58,1.58,0,0,0-.51-2.17L55.56,8.29a1.58,1.58,0,0,0-2.17.51l-1.88,3a15.36,15.36,0,0,0-5-.82l-.81-3.47a1.57,1.57,0,0,0-1.89-1.17L40,7.25a1.57,1.57,0,0,0-1.17,1.89l.81,3.47a15.39,15.39,0,0,0-4.14,3l-3-1.88a1.58,1.58,0,0,0-2.17.51L28.2,17.54a1.58,1.58,0,0,0,.51,2.17l3,1.88a15.57,15.57,0,0,0-.83,5l-3.46.81a1.58,1.58,0,0,0-1.18,1.9l.89,3.82a1.58,1.58,0,0,0,1.9,1.18l3.46-.81a15.53,15.53,0,0,0,3,4.13l-1.88,3a1.59,1.59,0,0,0,.51,2.18l3.33,2.07a1.58,1.58,0,0,0,2.17-.51l1.88-3a15.36,15.36,0,0,0,5,.82l.81,3.47a1.58,1.58,0,0,0,1.89,1.18l3.83-.9a1.57,1.57,0,0,0,1.17-1.89l-.81-3.47a15.39,15.39,0,0,0,4.14-3l3,1.88A1.58,1.58,0,0,0,62.73,39l2.07-3.34a1.58,1.58,0,0,0-.51-2.17l-3-1.87a15.68,15.68,0,0,0,.83-5l3.46-.81a1.58,1.58,0,0,0,1.18-1.9l-.89-3.82A1.59,1.59,0,0,0,64,18.88ZM48,33.05a6.62,6.62,0,1,1,4.94-8A6.63,6.63,0,0,1,48,33.05Z"/></g></svg>